<?xml version="1.0" encoding="UTF-8" standalone="no"?>
<!DOCTYPE svg PUBLIC "-//W3C//DTD SVG 1.1//EN" "http://www.w3.org/Graphics/SVG/1.1/DTD/svg11.dtd">
<svg width="100%" height="100%" viewBox="0 0 250 131" version="1.1" xmlns="http://www.w3.org/2000/svg" xmlns:xlink="http://www.w3.org/1999/xlink" xml:space="preserve" xmlns:serif="http://www.serif.com/" style="fill-rule:evenodd;clip-rule:evenodd;stroke-linejoin:round;stroke-miterlimit:2;">
    <path d="M246,49.66C244.81,48.23 243.52,47.9 242.53,47.9L234.23,47.9C232.55,47.9 231.16,48.84 230.25,50.2L226.13,55.88L222.63,50.88C221.53,49.27 220,48.31 218.25,48.31L214.85,48.31L214.85,40.98C214.85,37.84 212.26,36.72 210.49,36.72L204.39,36.72L214.63,23.86C217.58,20.41 216.13,15.99 213.93,14.37C213.05,13.75 212.11,13.61 211.42,13.61L202.26,13.61C200.66,13.61 199.61,14.71 198.72,16.01L193.97,22.36L189.22,15.91C188.06,14.27 186.68,13.61 185.24,13.61L169.35,13.61C166.97,13.61 166.13,14.47 165.22,15.97L159.17,26.4L153.41,16.13C152.5,14.61 151.12,13.61 149.36,13.61L143.69,13.61C140.83,13.61 139.42,15.36 138.75,17.08C136.16,14.85 133.18,13.61 129.98,13.61L109.57,13.61C105.89,13.61 104.8,17.05 104.8,19.04L104.8,35.63C104.8,35.98 104.69,36.31 104.14,36.31L101.32,36.31L101.32,19.04C101.32,16.36 99.48,13.91 96.76,13.91L89.46,13.91C88.32,13.91 87.4,14.45 86.67,15.25C85.93,14.45 84.9,13.91 83.66,13.91L77.83,13.91C76.61,13.91 75.59,14.43 74.83,15.22C73.98,14.38 72.84,13.85 71.5,13.85L63.77,13.85C60.73,13.85 58.08,16.92 58.08,19.41L58.08,35.98C58.08,36.73 57.82,36.94 57.43,36.94L57.43,19.19C57.43,16.34 55.23,13.91 52.34,13.91L45.15,13.91C43.02,13.91 41.35,15.19 40.52,16.96C38.35,14.91 35.83,13.85 33.56,13.85L12.5,13.85C8.98,13.85 7.92,17.31 7.92,18.62L7.92,48.16C5.72,48.97 4.18,50.95 4.18,53.69L4.18,77.59C4.18,81.97 7.71,84.08 10.25,84.08L27.4,84.08C30.1,84.08 32.79,83.46 34.79,82.04C35.78,83.4 37.38,84.08 38.84,84.08L45.74,84.08C46.65,84.08 47.51,83.91 48.28,83.57C49.22,83.94 50.17,84.08 50.97,84.08L57.87,84.08C60.23,84.08 61.83,83.17 62.76,81.66L64.69,83.11C65.78,83.84 67.16,84.08 68.08,84.08L76.76,84.08C77.82,84.08 78.77,83.82 79.58,83.37C80.46,83.82 81.43,84.08 82.47,84.08L103.38,84.08C105.45,84.08 106.85,82.96 107.65,81.41C109.7,83.18 112.19,84.08 115.15,84.08L128.65,84.08L114.49,98.26C107.92,104.69 109.18,112.93 114.5,117.85C120.09,123.05 127.98,121.36 131.9,117.39L150.36,99.01C152.1,97.27 152.45,95.14 152.1,93.49C157.79,96.73 164.94,97.68 171.81,96.41C182.38,94.34 190.16,88.48 196.56,79.13L199.91,82.53C200.76,83.47 202.14,83.95 203.23,83.95L211.61,83.95C214.22,83.95 215.68,82.46 216.43,80.59L217.5,82.11C218.49,83.47 219.87,83.89 221.1,83.89L229.45,83.89C232.31,83.89 234.23,81.31 234.23,78.73L234.23,71.22L245.27,58.91C247.98,56.11 247.66,51.7 246,49.66Z" style="fill:rgb(255,255,255);fill-rule:nonzero;"/>
    <path d="M12.78,18.95L33.21,18.95C38.18,18.95 40.92,22.78 40.92,27.27C40.92,29.71 40.22,32.14 38.31,33.77C40.56,35.26 41.31,37.61 41.31,40.1C41.31,44.74 37.91,47.44 33.78,47.44L12.78,47.44L12.78,18.95ZM19.68,26.3L19.68,30.97C19.68,31.46 19.93,31.71 20.37,31.71L30.58,31.71C32.41,31.71 33.25,30.38 33.25,28.77C33.25,27.26 32.36,26.16 30.58,26.16L20.37,26.16C19.93,26.16 19.68,26.37 19.68,26.3ZM19.68,37.88L19.68,41.19C19.68,41.68 19.93,41.93 20.37,41.93L30.66,41.93C32.95,41.93 33.64,40.99 33.64,39.21C33.64,37.72 32.78,36.89 30.66,36.89L20.37,36.89C19.93,36.89 19.68,37.1 19.68,37.88Z" style="fill:rgb(20,0,24);fill-rule:nonzero;"/>
    <path d="M45.69,18.85L52.22,18.85L52.22,37.09C52.22,40.17 53.59,41.71 56.45,41.71L60.17,41.71C62.97,41.71 63.92,39.73 63.92,37.09L63.92,18.85L70.73,18.85L70.73,37.91C70.73,43.92 66.69,47.31 61.27,47.31L56.43,47.31C50.22,47.31 45.69,43.92 45.69,37.91L45.69,18.85Z" style="fill:rgb(20,0,24);fill-rule:nonzero;"/>
    <path d="M75.91,18.85L83.11,18.85L83.11,46.91L76.66,46.91C76.22,46.91 75.91,46.51 75.91,46.08L75.91,18.85Z" style="fill:rgb(20,0,24);fill-rule:nonzero;"/>
    <path d="M88.48,18.85L95.67,18.85L95.67,39.82C95.67,40.25 95.93,40.57 96.46,40.57L104.61,40.57L104.61,46.91L89.42,46.91C88.81,46.91 88.48,46.48 88.48,45.81L88.48,18.85Z" style="fill:rgb(20,0,24);fill-rule:nonzero;"/>
    <path d="M109.3,18.7L129.2,18.7C136.06,18.7 138.97,24.52 138.97,29.01L138.97,37.55C138.97,43.43 134.88,47.11 129.59,47.11L109.91,47.26C109.3,47.26 109.04,46.76 109.04,46.17L109.04,19.49C109.04,18.97 109.3,18.7 109.3,18.7ZM116.2,26.51C115.81,26.51 115.99,26.72 115.99,27.12L115.99,40.51C115.99,40.94 116.02,41.19 116.46,41.19L127.88,41.19C130.88,41.19 131.69,39.41 131.69,36.77L131.69,30.19C131.69,27.97 130.7,26.51 127.88,26.51L116.2,26.51Z" style="fill:rgb(20,0,24);fill-rule:nonzero;"/>
    <path d="M144.4,18.56L149.72,18.56L158.53,35.26L168.41,18.56L174.45,18.56L174.45,45.82C174.45,46.39 174.75,46.85 175.44,46.91C184.88,47.73 190.98,55.06 191.46,55.14L204.01,55.14C209.09,55.14 211.81,58.46 211.81,62.95C211.81,67.29 209.52,70.35 206.12,71.22L212.93,78.69L202.81,78.69L195.71,70.67L195.71,66.25L202.24,66.25C205.09,66.25 205.76,65.11 205.76,62.95C205.76,61.18 204.73,60.05 202.24,60.05L192.2,60.05C192.78,62.71 193.21,65.77 193.06,68.96C192.31,80.39 181.82,90.71 167.88,90.15C160.93,89.86 155.94,87.28 152.26,84.31L146.36,89.79L147.39,90.92C148.57,92.28 147.39,94.27 146.64,95.01L128.61,112.84C124.66,116.79 119.06,115.09 116.82,111.76C114.73,108.62 115.35,104.91 118.43,101.87L136.47,83.9C137.84,82.77 139.32,83.25 140.41,84.02C141.07,84.51 141.56,84.68 142.31,83.9L150.95,74.97C152.09,73.83 153.71,74.48 154.41,75.42C157.81,79.52 162.17,81.92 167.63,81.61C176.78,81.09 183.81,73.16 182.51,64.71C181.33,56.75 175.01,52.76 168.91,52.47C167.31,52.39 166.93,51.03 166.93,50.01L166.93,35.26L159.59,46.84C158.76,48.13 157.66,47.31 157.18,46.36L150.7,35.26L150.7,46.21C150.7,46.71 150.31,47.04 149.77,47.04L144.92,47.04C144.31,47.04 143.82,46.71 143.82,46.13L143.82,19.62C143.82,19.04 144.08,18.56 144.4,18.56ZM178.09,19.29L185.72,19.29L194.47,30.9L203.63,19.29L210.49,19.29C211.63,19.29 211.81,20.75 210.95,21.76L197.38,36.89L197.38,46.6C197.38,47.25 196.81,47.61 196.27,47.61L191.06,47.61C190.31,47.61 189.83,47.11 189.83,46.28L189.83,36.74L177.91,21.31C177.06,20.21 177.24,19.29 178.09,19.29ZM180.08,32.26L185.72,38.01L185.72,44.19L179.75,41.41L180.08,32.26ZM203.62,42.07L210.41,42.07L210.41,48.08L203.62,48.08L203.62,42.07Z" style="fill:rgb(20,0,24);fill-rule:nonzero;"/>
    <path d="M9.11,53.76L26.97,53.76C33.14,53.76 35.71,57.83 35.71,62.32L35.71,68.9C35.71,74.21 32.44,78.04 26.97,78.04L9.42,78.04L9.42,54.41C9.42,53.96 9.11,53.76 9.11,53.76ZM14.78,60.27L14.78,71.31C14.78,71.74 14.82,71.99 15.26,71.99L25.38,71.99C28.1,71.99 28.68,70.73 28.68,68.09L28.68,62.4C28.68,60.17 27.83,59.31 25.38,59.31L15.43,59.31C15.04,59.31 14.78,59.52 14.78,60.27Z" style="fill:rgb(20,0,24);fill-rule:nonzero;"/>
    <path d="M39.78,54.41L45.71,54.41L45.71,77.91L40.29,77.91C39.9,77.91 39.78,77.66 39.78,77.23L39.78,54.41Z" style="fill:rgb(20,0,24);fill-rule:nonzero;"/>
    <path d="M50.61,54.11L67.93,54.11C73.72,54.11 76.01,57.01 76.01,61.5C76.01,65.84 74.13,68.9 70.04,69.77L76.72,76.68L76.72,77.91L68.34,77.91L61.23,70.11L61.23,66.11L66.7,66.11C69.73,66.11 70.26,65.28 70.26,62.89C70.26,61.12 69.17,60.26 66.7,60.26L57.67,60.26L57.67,77.23C57.67,77.66 57.32,77.91 56.93,77.91L51.01,77.91L51.01,54.71C51.01,54.36 50.76,54.11 50.61,54.11Z" style="fill:rgb(20,0,24);fill-rule:nonzero;"/>
    <path d="M81.63,53.96L102.59,53.96C103.41,53.96 103.84,54.46 103.84,55.13L103.84,58.74L88.11,58.74L88.11,62.57L102.06,62.57L102.06,67.7L88.11,67.7L88.11,72.37L103.84,72.37L103.84,77.11C103.84,77.76 103.31,78.02 102.72,78.02L81.63,78.02L81.63,53.96Z" style="fill:rgb(20,0,24);fill-rule:nonzero;"/>
    <path d="M106.9,61.71C106.9,56.02 110.21,53.66 115.05,53.66L128.8,53.66C129.73,53.66 130.08,54.25 130.08,55.11L130.08,58.94L117.09,58.94C114.33,58.94 113.52,59.8 113.52,62.62L113.52,68.84C113.52,71.42 114.37,72.61 117.09,72.61L130.08,72.61L130.08,77.17C130.08,77.76 129.6,78.02 128.91,78.02L115.75,78.02C110.37,78.02 106.9,75.38 106.9,69.5L106.9,61.71Z" style="fill:rgb(20,0,24);fill-rule:nonzero;"/>
    <path d="M133.6,53.96L153.69,53.96C154.61,53.96 155,54.61 155,55.44L155,59.11L146.62,59.11L146.62,77.07C146.62,77.66 146.23,78.01 145.59,78.01L141.14,78.01L141.14,59.11L133.77,59.11L133.77,55.11C133.77,54.46 133.51,53.96 133.6,53.96Z" style="fill:rgb(20,0,24);fill-rule:nonzero;"/>
    <path d="M167.7,56.28C175.29,56.28 179.1,62.43 178.71,67.71C178.22,73.93 173.46,77.76 167.7,77.33C161.21,76.84 156.6,72.17 156.6,66.55C156.6,60.79 161.35,56.28 167.7,56.28ZM167.62,59.31C162.51,59.31 160.26,63.21 160.26,66.52C160.26,70.35 163.37,73.91 167.7,73.91C172.12,73.91 175.11,70.11 175.11,66.6C175.03,62.92 172.37,59.31 167.62,59.31Z" style="fill:rgb(255,255,255);fill-rule:nonzero;"/>
    <path d="M212.3,54.21L218.75,54.21L225.95,63.75L234.37,53.61L241.09,53.61C242.12,53.61 242.05,54.74 241.09,55.76L227.77,71.04L227.77,77.62C227.77,78.27 227.38,78.52 226.75,78.52L223.07,78.52C222.31,78.52 221.88,78.11 221.88,77.27L221.88,68.57L211.64,55.69C210.89,54.74 211.22,54.21 212.3,54.21ZM214.55,70.11L217.27,73.1L217.27,69.1L215.25,66.46L214.55,70.11Z" style="fill:rgb(20,0,24);fill-rule:nonzero;"/>
    <path d="M130.6,122.7C124.07,127.24 114.24,127.42 108.39,122.2C101.37,115.82 102.88,105.97 107.63,101.92C104.4,109.07 107.25,117.27 113.78,121.27C119.07,124.56 125.35,124.67 130.6,122.7Z" style="fill:rgb(255,255,255);fill-rule:nonzero;"/>
</svg>
